<svg xmlns="http://www.w3.org/2000/svg" width="64" height="64" viewBox="0 0 64 64" role="img" aria-label="Happier Block houses icon">
  <defs>
    <linearGradient id="hb-bg" x1="0%" y1="0%" x2="100%" y2="100%">
      <stop offset="0%" stop-color="#7c3aed" />
      <stop offset="100%" stop-color="#0ea5e9" />
    </linearGradient>
  </defs>

  <rect width="64" height="64" rx="16" fill="url(#hb-bg)" />

  <!-- Left house -->
  <path d="M11 31l11-9 11 9v16H11z" fill="#ffffff" opacity="0.95" />
  <path d="M8 32l14-12 14 12" fill="none" stroke="#ffffff" stroke-width="3.2" stroke-linecap="round" stroke-linejoin="round" />
  <rect x="18.5" y="39" width="7" height="8" rx="1.2" fill="#7c3aed" opacity="0.85" />
  <rect x="14" y="36" width="3.8" height="3.8" rx="0.8" fill="#7c3aed" opacity="0.75" />
  <rect x="26.2" y="36" width="3.8" height="3.8" rx="0.8" fill="#7c3aed" opacity="0.75" />

  <!-- Right/back house -->
  <path d="M29 26l10-8 10 8v18H29z" fill="#ffffff" opacity="0.82" />
  <path d="M27 27l12-10 12 10" fill="none" stroke="#ffffff" stroke-width="2.6" stroke-linecap="round" stroke-linejoin="round" opacity="0.95" />
  <rect x="35.8" y="36.5" width="6.2" height="7.5" rx="1.1" fill="#0ea5e9" opacity="0.7" />

  <!-- Ground accent -->
  <rect x="10" y="49.2" width="44" height="2.6" rx="1.3" fill="#ffffff" opacity="0.45" />
</svg>
